<?xml version="1.0" encoding="UTF-8"?>
<!DOCTYPE svg PUBLIC "-//W3C//DTD SVG 1.1//EN" "http://www.w3.org/Graphics/SVG/1.1/DTD/svg11.dtd">
<svg xmlns="http://www.w3.org/2000/svg" version="1.1" width="352px" height="112px" style="shape-rendering:geometricPrecision; text-rendering:geometricPrecision; image-rendering:optimizeQuality; fill-rule:evenodd; clip-rule:evenodd" xmlns:xlink="http://www.w3.org/1999/xlink">
<g><path style="opacity:1" fill="#423b3d" d="M 63.5,15.5 C 62.3622,17.4411 60.6955,17.6078 58.5,16C 53.5111,15.5007 48.5111,15.3341 43.5,15.5C 40.4643,14.8176 37.4643,15.4843 34.5,17.5C 33.8933,17.3764 33.56,17.0431 33.5,16.5C 43.4514,11.6535 53.4514,11.3201 63.5,15.5 Z"/></g>
<g><path style="opacity:1" fill="#746b80" d="M 43.5,15.5 C 48.5111,15.3341 53.5111,15.5007 58.5,16C 60.6955,17.6078 62.3622,17.4411 63.5,15.5C 65.0269,15.427 66.0269,16.0937 66.5,17.5C 65.448,17.3505 64.448,17.5172 63.5,18C 64.8333,19 66.1667,20 67.5,21C 52.0891,14.2694 39.0891,17.4361 28.5,30.5C 25.2639,30.0094 24.7639,28.6761 27,26.5C 31.3018,20.9394 36.8018,17.2728 43.5,15.5 Z"/></g>
<g><path style="opacity:1" fill="#7c68c8" d="M 26.5,18.5 C 28.288,18.2148 29.9547,18.5481 31.5,19.5C 31.2907,20.086 30.9574,20.586 30.5,21C 28.1152,21.5564 25.7819,21.3897 23.5,20.5C 23.8212,18.9519 24.8212,18.2852 26.5,18.5 Z"/></g>
<g><path style="opacity:1" fill="#826fda" d="M 49.5,22.5 C 52.3274,22.5838 54.994,23.2504 57.5,24.5C 58.3382,24.1583 58.6716,23.4916 58.5,22.5C 61.6149,24.2878 63.6149,26.9545 64.5,30.5C 63.2876,29.7701 62.2876,28.7701 61.5,27.5C 50.6407,29.0106 41.8074,34.0106 35,42.5C 34.586,42.0426 34.086,41.7093 33.5,41.5C 32.3892,43.5522 30.7225,44.8855 28.5,45.5C 27.5244,44.1851 26.5244,42.8518 25.5,41.5C 27.8541,39.7539 28.8541,37.4206 28.5,34.5C 30.9171,32.5889 33.2504,30.4222 35.5,28C 37.7148,26.9562 40.0481,26.2895 42.5,26C 40.7295,25.4646 40.3961,24.6313 41.5,23.5C 44.3384,22.7383 47.005,22.4049 49.5,22.5 Z"/></g>
<g><path style="opacity:1" fill="#7762b5" d="M 24.5,32.5 C 24.0831,33.1239 23.4164,33.4573 22.5,33.5C 21.0734,32.1444 19.7401,31.4778 18.5,31.5C 19.4671,29.2099 20.8004,27.2099 22.5,25.5C 28.6478,22.5856 29.1478,23.5856 24,28.5C 23.4209,29.9285 23.5876,31.2618 24.5,32.5 Z"/></g>
<g><path style="opacity:1" fill="#6459d0" d="M 64.5,30.5 C 64.8333,30.5 65.1667,30.5 65.5,30.5C 65.4828,32.5648 65.1495,34.5648 64.5,36.5C 63.71,35.3915 63.21,34.0581 63,32.5C 62.7261,35.7145 61.3927,38.3812 59,40.5C 58.7216,39.5842 58.2216,38.9175 57.5,38.5C 55.9894,36.5589 53.9894,36.0589 51.5,37C 38.3883,43.387 32.055,53.887 32.5,68.5C 33.167,70.8194 33.3336,73.1527 33,75.5C 29.4323,72.0727 27.9323,68.0727 28.5,63.5C 31.1241,57.6031 31.1241,51.6031 28.5,45.5C 30.7225,44.8855 32.3892,43.5522 33.5,41.5C 34.086,41.7093 34.586,42.0426 35,42.5C 41.8074,34.0106 50.6407,29.0106 61.5,27.5C 62.2876,28.7701 63.2876,29.7701 64.5,30.5 Z"/></g>
<g><path style="opacity:1" fill="#191117" d="M 43.5,15.5 C 36.8018,17.2728 31.3018,20.9394 27,26.5C 24.7639,28.6761 25.2639,30.0094 28.5,30.5C 39.0891,17.4361 52.0891,14.2694 67.5,21C 66.1667,20 64.8333,19 63.5,18C 64.448,17.5172 65.448,17.3505 66.5,17.5C 72.536,20.2073 75.8694,24.874 76.5,31.5C 75.6236,31.3691 74.9569,31.7025 74.5,32.5C 74.7824,34.9866 74.7824,37.6533 74.5,40.5C 73.8333,39.8333 73.1667,39.1667 72.5,38.5C 72.5,37.5 72.5,36.5 72.5,35.5C 72.458,32.4148 71.1247,30.0814 68.5,28.5C 67.8933,28.6236 67.56,28.9569 67.5,29.5C 67.4403,32.3408 66.7736,35.0075 65.5,37.5C 64.8333,37.5 64.5,37.1667 64.5,36.5C 65.1495,34.5648 65.4828,32.5648 65.5,30.5C 64.988,25.4755 62.488,21.8088 58,19.5C 57.5304,20.5768 57.6971,21.5768 58.5,22.5C 58.6716,23.4916 58.3382,24.1583 57.5,24.5C 55.8005,22.5593 53.6339,21.2259 51,20.5C 49.9701,20.8361 49.4701,21.5028 49.5,22.5C 47.005,22.4049 44.3384,22.7383 41.5,23.5C 40.3961,24.6313 40.7295,25.4646 42.5,26C 40.0481,26.2895 37.7148,26.9562 35.5,28C 33.2504,30.4222 30.9171,32.5889 28.5,34.5C 27.5326,33.1938 26.1993,32.5271 24.5,32.5C 23.5876,31.2618 23.4209,29.9285 24,28.5C 29.1478,23.5856 28.6478,22.5856 22.5,25.5C 22.0618,25.5654 21.7284,25.3988 21.5,25C 22.5,24.1667 23.5,23.3333 24.5,22.5C 23.9747,21.8076 23.3081,21.3076 22.5,21C 22.7284,20.6012 23.0618,20.4346 23.5,20.5C 25.7819,21.3897 28.1152,21.5564 30.5,21C 30.9574,20.586 31.2907,20.086 31.5,19.5C 29.9547,18.5481 28.288,18.2148 26.5,18.5C 27.9303,17.4625 29.597,16.7959 31.5,16.5C 32.1667,16.5 32.8333,16.5 33.5,16.5C 33.56,17.0431 33.8933,17.3764 34.5,17.5C 37.4643,15.4843 40.4643,14.8176 43.5,15.5 Z"/></g>
<g><path style="opacity:1" fill="#bfb6c7" d="M 65.5,30.5 C 65.1667,30.5 64.8333,30.5 64.5,30.5C 63.6149,26.9545 61.6149,24.2878 58.5,22.5C 57.6971,21.5768 57.5304,20.5768 58,19.5C 62.488,21.8088 64.988,25.4755 65.5,30.5 Z"/></g>
<g><path style="opacity:1" fill="#c4bad3" d="M 57.5,24.5 C 54.994,23.2504 52.3274,22.5838 49.5,22.5C 49.4701,21.5028 49.9701,20.8361 51,20.5C 53.6339,21.2259 55.8005,22.5593 57.5,24.5 Z"/></g>
<g><path style="opacity:1" fill="#c9c2d5" d="M 67.5,29.5 C 67.56,28.9569 67.8933,28.6236 68.5,28.5C 71.1247,30.0814 72.458,32.4148 72.5,35.5C 71.31,33.1307 69.6433,31.1307 67.5,29.5 Z"/></g>
<g><path style="opacity:0.82" fill="#645cd8" d="M 111.5,32.5 C 112.833,32.5 114.167,32.5 115.5,32.5C 115.5,35.8333 115.5,39.1667 115.5,42.5C 119.5,42.5 123.5,42.5 127.5,42.5C 127.5,39.1667 127.5,35.8333 127.5,32.5C 128.822,32.33 129.989,32.6634 131,33.5C 131.5,41.1594 131.666,48.8261 131.5,56.5C 130.167,56.5 128.833,56.5 127.5,56.5C 127.5,53.1667 127.5,49.8333 127.5,46.5C 123.5,46.5 119.5,46.5 115.5,46.5C 115.5,49.8333 115.5,53.1667 115.5,56.5C 114.167,56.5 112.833,56.5 111.5,56.5C 111.5,48.5 111.5,40.5 111.5,32.5 Z"/></g>
<g><path style="opacity:0.869" fill="#645cd7" d="M 191.5,32.5 C 193.722,32.178 195.556,32.8446 197,34.5C 198.667,37.8333 200.333,41.1667 202,44.5C 203.667,41.1667 205.333,37.8333 207,34.5C 208.555,32.4848 210.389,32.1515 212.5,33.5C 209.667,38.5 206.833,43.5 204,48.5C 203.503,51.146 203.336,53.8127 203.5,56.5C 202.167,56.5 200.833,56.5 199.5,56.5C 199.665,53.4816 199.498,50.4816 199,47.5C 195.962,42.7568 193.462,37.7568 191.5,32.5 Z"/></g>
<g><path style="opacity:0.795" fill="#645cd8" d="M 269.5,32.5 C 273.721,37.2478 277.721,42.2478 281.5,47.5C 285.333,42.5 289.167,37.5 293,32.5C 293.5,40.4931 293.666,48.4931 293.5,56.5C 292.167,56.5 290.833,56.5 289.5,56.5C 289.666,52.1539 289.499,47.8206 289,43.5C 286.732,47.0506 284.232,50.3839 281.5,53.5C 278.841,50.6709 276.341,47.6709 274,44.5C 273.501,48.4862 273.334,52.4862 273.5,56.5C 272.167,56.5 270.833,56.5 269.5,56.5C 269.5,48.5 269.5,40.5 269.5,32.5 Z"/></g>
<g><path style="opacity:0.691" fill="#000000" d="M 330.5,35.5 C 334.161,35.3501 335.161,36.8501 333.5,40C 332.551,40.6172 331.718,40.4506 331,39.5C 330.51,38.2068 330.343,36.8734 330.5,35.5 Z"/></g>
<g><path style="opacity:1" fill="#6857ca" d="M 67.5,29.5 C 69.6433,31.1307 71.31,33.1307 72.5,35.5C 72.5,36.5 72.5,37.5 72.5,38.5C 72.154,45.0123 70.4873,45.679 67.5,40.5C 66.5712,39.4502 65.9046,39.4502 65.5,40.5C 64.8333,40.5 64.1667,40.5 63.5,40.5C 64.1667,39.5 64.8333,38.5 65.5,37.5C 66.7736,35.0075 67.4403,32.3408 67.5,29.5 Z"/></g>
<g><path style="opacity:0.805" fill="#000000" d="M 156.5,36.5 C 157.5,36.5 158.5,36.5 159.5,36.5C 159.5,38.5 159.5,40.5 159.5,42.5C 160.833,42.5 162.167,42.5 163.5,42.5C 163.5,43.8333 163.5,45.1667 163.5,46.5C 162.167,46.5 160.833,46.5 159.5,46.5C 159.5,49.8333 159.5,53.1667 159.5,56.5C 158.5,56.5 157.5,56.5 156.5,56.5C 156.5,53.1667 156.5,49.8333 156.5,46.5C 155.5,46.5 154.5,46.5 153.5,46.5C 153.5,45.1667 153.5,43.8333 153.5,42.5C 154.5,42.5 155.5,42.5 156.5,42.5C 156.5,40.5 156.5,38.5 156.5,36.5 Z"/></g>
<g><path style="opacity:0.915" fill="#402a5a" d="M 64.5,36.5 C 64.5,37.1667 64.8333,37.5 65.5,37.5C 64.8333,38.5 64.1667,39.5 63.5,40.5C 60.5448,41.1587 57.5448,41.4921 54.5,41.5C 53.9423,40.2101 52.9423,39.3768 51.5,39C 53.7008,38.1751 55.5341,38.6751 57,40.5C 57.4643,39.9056 57.631,39.2389 57.5,38.5C 58.2216,38.9175 58.7216,39.5842 59,40.5C 61.3927,38.3812 62.7261,35.7145 63,32.5C 63.21,34.0581 63.71,35.3915 64.5,36.5 Z"/></g>
<g><path style="opacity:0.732" fill="#000000" d="M 138.5,42.5 C 142.6,43.0047 146.6,43.0047 150.5,42.5C 150.5,47.1667 150.5,51.8333 150.5,56.5C 147.626,56.4511 144.792,56.7844 142,57.5C 137.511,57.0113 135.011,54.5113 134.5,50C 134.994,46.9919 136.327,44.4919 138.5,42.5 Z M 141.5,45.5 C 146.262,46.0925 147.596,48.5925 145.5,53C 141.872,54.316 139.539,53.1493 138.5,49.5C 139.172,47.8405 140.172,46.5072 141.5,45.5 Z"/></g>
<g><path style="opacity:0.712" fill="#000000" d="M 169.5,42.5 C 174.763,41.2627 178.43,43.0961 180.5,48C 177.167,49.6667 173.833,51.3333 170.5,53C 172.441,53.7429 174.274,53.5762 176,52.5C 178.152,54.2773 177.985,55.7773 175.5,57C 167.45,57.9492 164.283,54.4492 166,46.5C 166.69,44.6498 167.856,43.3164 169.5,42.5 Z M 171.5,45.5 C 173.103,45.3118 174.437,45.8118 175.5,47C 173.649,47.8372 171.816,48.6705 170,49.5C 169.516,47.8067 170.016,46.4733 171.5,45.5 Z"/></g>
<g><path style="opacity:0.739" fill="#000000" d="M 214.5,42.5 C 225.433,41.9143 228.433,46.4143 223.5,56C 215.044,59.1004 210.878,56.2671 211,47.5C 211.997,45.6769 213.164,44.0103 214.5,42.5 Z M 216.5,45.5 C 222.02,46.0435 223.354,48.5435 220.5,53C 214.403,53.1475 213.07,50.6475 216.5,45.5 Z"/></g>
<g><path style="opacity:0.716" fill="#000000" d="M 229.5,42.5 C 230.833,42.5 232.167,42.5 233.5,42.5C 233.076,46.7032 233.576,50.7032 235,54.5C 236.333,53.8333 237.333,52.8333 238,51.5C 238.498,48.5184 238.665,45.5184 238.5,42.5C 239.833,42.5 241.167,42.5 242.5,42.5C 242.5,47.1667 242.5,51.8333 242.5,56.5C 239.626,56.4511 236.792,56.7844 234,57.5C 232.289,57.5607 230.956,56.8941 230,55.5C 229.501,51.1794 229.334,46.8461 229.5,42.5 Z"/></g>
<g><path style="opacity:0.697" fill="#000000" d="M 246.5,42.5 C 248.451,42.2267 249.951,42.8934 251,44.5C 252.11,42.9632 253.61,42.2965 255.5,42.5C 255.5,43.8333 255.5,45.1667 255.5,46.5C 253.61,46.2965 252.11,46.9632 251,48.5C 250.503,51.146 250.336,53.8127 250.5,56.5C 249.167,56.5 247.833,56.5 246.5,56.5C 246.5,51.8333 246.5,47.1667 246.5,42.5 Z"/></g>
<g><path style="opacity:0.727" fill="#000000" d="M 297.5,42.5 C 298.93,42.4208 300.264,42.7542 301.5,43.5C 302.321,46.4465 302.821,49.4465 303,52.5C 305.09,53.7908 306.424,53.1242 307,50.5C 307.497,47.854 307.664,45.1873 307.5,42.5C 308.833,42.5 310.167,42.5 311.5,42.5C 311.052,47.0408 311.719,51.3741 313.5,55.5C 313.192,56.3081 312.692,56.9747 312,57.5C 309.282,55.2315 306.449,55.2315 303.5,57.5C 301.742,56.8721 300.242,55.8721 299,54.5C 298.866,51.1277 298.032,47.961 296.5,45C 296.743,44.0979 297.077,43.2646 297.5,42.5 Z"/></g>
<g><path style="opacity:0.735" fill="#000000" d="M 317.5,42.5 C 320.249,42.2739 322.916,42.6072 325.5,43.5C 326.429,44.6888 326.762,46.0222 326.5,47.5C 324.418,47.528 322.584,46.8613 321,45.5C 320.5,46 320,46.5 319.5,47C 322.308,47.598 324.808,48.7647 327,50.5C 327.639,54.8736 325.639,57.2069 321,57.5C 316.852,57.5215 315.018,55.5215 315.5,51.5C 318.001,52.8264 320.668,53.3264 323.5,53C 320.793,51.8723 318.293,50.3723 316,48.5C 315.252,46.1599 315.752,44.1599 317.5,42.5 Z"/></g>
<g><path style="opacity:0.777" fill="#000000" d="M 330.5,42.5 C 331.833,42.5 333.167,42.5 334.5,42.5C 334.942,47.6912 334.442,52.6912 333,57.5C 332.586,57.0426 332.086,56.7093 331.5,56.5C 330.507,51.8804 330.173,47.2137 330.5,42.5 Z"/></g>
<g><path style="opacity:0.74" fill="#000000" d="M 341.5,42.5 C 343.857,42.3367 346.19,42.5034 348.5,43C 351.079,44.6117 351.079,46.1117 348.5,47.5C 343.684,44.4796 341.518,45.8129 342,51.5C 342.739,52.5742 343.739,53.2409 345,53.5C 346.766,52.7665 348.599,52.4332 350.5,52.5C 350.321,55.7705 348.488,57.4371 345,57.5C 338.887,56.2802 336.554,52.6135 338,46.5C 338.69,44.6498 339.856,43.3164 341.5,42.5 Z"/></g>
<g><path style="opacity:0.996" fill="#3a2e3b" d="M 76.5,31.5 C 77.1499,31.8039 77.8165,32.1373 78.5,32.5C 79.9934,39.3135 81.3267,46.1468 82.5,53C 82.7761,56.7862 81.9427,60.2862 80,63.5C 78.9887,64.3366 77.8221,64.67 76.5,64.5C 76.4226,63.2502 75.756,62.4169 74.5,62C 75.6687,59.9935 76.3354,57.8268 76.5,55.5C 77.4959,55.5858 78.3292,55.2524 79,54.5C 80.006,50.1985 79.506,46.1985 77.5,42.5C 77.9382,42.5654 78.2716,42.3988 78.5,42C 77.7362,39.9307 77.2362,37.764 77,35.5C 76.6667,37.1667 76.3333,38.8333 76,40.5C 75.31,41.7383 74.81,41.7383 74.5,40.5C 74.7824,37.6533 74.7824,34.9866 74.5,32.5C 74.9569,31.7025 75.6236,31.3691 76.5,31.5 Z"/></g>
<g><path style="opacity:1" fill="#1f1515" d="M 57.5,38.5 C 57.631,39.2389 57.4643,39.9056 57,40.5C 55.5341,38.6751 53.7008,38.1751 51.5,39C 52.9423,39.3768 53.9423,40.2101 54.5,41.5C 47.3618,40.2349 42.3618,42.9016 39.5,49.5C 40.0047,50.9185 41.0047,51.5852 42.5,51.5C 45.687,54.9485 49.187,55.2818 53,52.5C 54.4728,52.9031 55.8061,53.5697 57,54.5C 59.8046,51.3475 63.3046,49.6808 67.5,49.5C 67.5479,52.2919 66.2146,54.1253 63.5,55C 64.0442,55.7172 64.7109,56.2172 65.5,56.5C 65.6382,59.0466 65.1382,61.7133 64,64.5C 61.8797,67.0801 59.713,67.0801 57.5,64.5C 56.4092,61.122 55.4092,57.7887 54.5,54.5C 53.5,54.5 52.5,54.5 51.5,54.5C 51.8383,58.1507 50.1716,59.8174 46.5,59.5C 45.9812,66.0551 42.9812,67.7218 37.5,64.5C 37.6716,63.5084 37.3382,62.8417 36.5,62.5C 36.4661,59.8015 37.1328,57.3015 38.5,55C 38.1667,54.8333 37.8333,54.6667 37.5,54.5C 35.5056,57.1498 34.5056,60.1498 34.5,63.5C 33.8333,65.1667 33.1667,66.8333 32.5,68.5C 32.055,53.887 38.3883,43.387 51.5,37C 53.9894,36.0589 55.9894,36.5589 57.5,38.5 Z"/></g>
<g><path style="opacity:1" fill="#918289" d="M 77.5,42.5 C 79.506,46.1985 80.006,50.1985 79,54.5C 78.3292,55.2524 77.4959,55.5858 76.5,55.5C 76.7275,51.6095 76.3942,47.7762 75.5,44C 75.8361,42.9701 76.5028,42.4701 77.5,42.5 Z"/></g>
<g><path style="opacity:0.996" fill="#332834" d="M 31.5,16.5 C 29.597,16.7959 27.9303,17.4625 26.5,18.5C 24.8212,18.2852 23.8212,18.9519 23.5,20.5C 23.0618,20.4346 22.7284,20.6012 22.5,21C 23.3081,21.3076 23.9747,21.8076 24.5,22.5C 23.5,23.3333 22.5,24.1667 21.5,25C 21.7284,25.3988 22.0618,25.5654 22.5,25.5C 20.8004,27.2099 19.4671,29.2099 18.5,31.5C 19.7401,31.4778 21.0734,32.1444 22.5,33.5C 23.4164,33.4573 24.0831,33.1239 24.5,32.5C 26.1993,32.5271 27.5326,33.1938 28.5,34.5C 28.8541,37.4206 27.8541,39.7539 25.5,41.5C 26.5244,42.8518 27.5244,44.1851 28.5,45.5C 31.1241,51.6031 31.1241,57.6031 28.5,63.5C 28.2172,62.7109 27.7172,62.0442 27,61.5C 27.3295,54.2205 25.8295,47.3872 22.5,41C 23.452,39.6996 23.452,38.533 22.5,37.5C 21.8063,39.7548 20.8063,41.7548 19.5,43.5C 15.8669,43.443 15.7002,44.443 19,46.5C 20.0086,48.0249 20.5086,49.6916 20.5,51.5C 20.5654,51.9382 20.3988,52.2716 20,52.5C 17.7123,44.9298 15.5457,44.7631 13.5,52C 13.6,55.6768 14.6,56.1768 16.5,53.5C 16.0233,52.5224 15.3567,51.6891 14.5,51C 15.635,50.2506 16.635,50.4173 17.5,51.5C 19.4665,55.3862 18.4665,58.0529 14.5,59.5C 17.0817,60.1062 19.415,60.1062 21.5,59.5C 22.4339,61.0948 22.4339,62.7615 21.5,64.5C 19.8212,64.2852 18.8212,64.9519 18.5,66.5C 13.0803,64.0162 10.4136,59.6829 10.5,53.5C 10.5604,48.0456 12.7271,43.7123 17,40.5C 14.8355,33.7848 16.3355,27.7848 21.5,22.5C 19.9604,21.4679 19.4604,20.1346 20,18.5C 23.6604,15.8069 27.4937,15.1402 31.5,16.5 Z"/></g>
<g><path style="opacity:1" fill="#b1a2ac" d="M 19.5,43.5 C 21.8881,44.2187 23.3881,45.8854 24,48.5C 24.4983,51.8168 24.665,55.1501 24.5,58.5C 23.1667,56.1667 21.8333,53.8333 20.5,51.5C 20.5086,49.6916 20.0086,48.0249 19,46.5C 15.7002,44.443 15.8669,43.443 19.5,43.5 Z"/></g>
<g><path style="opacity:1" fill="#5f5271" d="M 20.5,51.5 C 21.8333,53.8333 23.1667,56.1667 24.5,58.5C 24.9689,61.3933 23.9689,63.3933 21.5,64.5C 22.4339,62.7615 22.4339,61.0948 21.5,59.5C 19.415,60.1062 17.0817,60.1062 14.5,59.5C 18.4665,58.0529 19.4665,55.3862 17.5,51.5C 16.635,50.4173 15.635,50.2506 14.5,51C 15.3567,51.6891 16.0233,52.5224 16.5,53.5C 14.6,56.1768 13.6,55.6768 13.5,52C 15.5457,44.7631 17.7123,44.9298 20,52.5C 20.3988,52.2716 20.5654,51.9382 20.5,51.5 Z"/></g>
<g><path style="opacity:0.035" fill="#d6c9d9" d="M 68.5,69.5 C 69.1667,69.5 69.5,69.1667 69.5,68.5C 70.4584,68.0472 71.2917,67.3805 72,66.5C 71.9827,68.5676 70.9827,70.2343 69,71.5C 68.5357,70.9056 68.369,70.2389 68.5,69.5 Z"/></g>
<g><path style="opacity:0.255" fill="#1e151d" d="M 77.5,42.5 C 76.5028,42.4701 75.8361,42.9701 75.5,44C 76.3942,47.7762 76.7275,51.6095 76.5,55.5C 76.3354,57.8268 75.6687,59.9935 74.5,62C 75.756,62.4169 76.4226,63.2502 76.5,64.5C 74.396,64.2011 72.396,64.5344 70.5,65.5C 69.8728,66.4168 69.5394,67.4168 69.5,68.5C 68.8333,68.5 68.5,68.8333 68.5,69.5C 63.119,71.0346 57.619,72.3679 52,73.5C 46.7614,72.8509 41.5948,72.3509 36.5,72C 36.8333,72.3333 37.1667,72.6667 37.5,73C 36.6919,73.3076 36.0253,73.8076 35.5,74.5C 37.4706,77.0267 38.1373,79.6934 37.5,82.5C 30.813,79.1508 26.813,73.8174 25.5,66.5C 23.1667,66.5 20.8333,66.5 18.5,66.5C 18.8212,64.9519 19.8212,64.2852 21.5,64.5C 23.9689,63.3933 24.9689,61.3933 24.5,58.5C 24.665,55.1501 24.4983,51.8168 24,48.5C 23.3881,45.8854 21.8881,44.2187 19.5,43.5C 20.8063,41.7548 21.8063,39.7548 22.5,37.5C 23.452,38.533 23.452,39.6996 22.5,41C 25.8295,47.3872 27.3295,54.2205 27,61.5C 27.7172,62.0442 28.2172,62.7109 28.5,63.5C 27.9323,68.0727 29.4323,72.0727 33,75.5C 33.3336,73.1527 33.167,70.8194 32.5,68.5C 33.1667,66.8333 33.8333,65.1667 34.5,63.5C 34.0502,67.224 35.7168,69.3907 39.5,70C 46.8333,70.6667 54.1667,70.6667 61.5,70C 62.9423,69.6232 63.9423,68.7899 64.5,67.5C 65.4687,66.6906 66.3021,65.6906 67,64.5C 67.4974,61.854 67.6641,59.1873 67.5,56.5C 68.8333,53.5 68.8333,50.5 67.5,47.5C 67.5,46.8333 67.5,46.1667 67.5,45.5C 67.6085,43.4862 66.9418,41.8195 65.5,40.5C 65.9046,39.4502 66.5712,39.4502 67.5,40.5C 70.4873,45.679 72.154,45.0123 72.5,38.5C 73.1667,39.1667 73.8333,39.8333 74.5,40.5C 74.81,41.7383 75.31,41.7383 76,40.5C 76.3333,38.8333 76.6667,37.1667 77,35.5C 77.2362,37.764 77.7362,39.9307 78.5,42C 78.2716,42.3988 77.9382,42.5654 77.5,42.5 Z M 65.5,56.5 C 66.3957,55.4937 67.0623,55.4937 67.5,56.5C 67.6641,59.1873 67.4974,61.854 67,64.5C 66.3021,65.6906 65.4687,66.6906 64.5,67.5C 58.7551,68.362 53.5884,69.0286 49,69.5C 46.2595,68.7178 43.4262,68.2178 40.5,68C 38.5743,67.5776 37.5743,66.4109 37.5,64.5C 42.9812,67.7218 45.9812,66.0551 46.5,59.5C 50.1716,59.8174 51.8383,58.1507 51.5,54.5C 52.5,54.5 53.5,54.5 54.5,54.5C 55.4092,57.7887 56.4092,61.122 57.5,64.5C 59.713,67.0801 61.8797,67.0801 64,64.5C 65.1382,61.7133 65.6382,59.0466 65.5,56.5 Z M 67.5,45.5 C 67.5,46.1667 67.5,46.8333 67.5,47.5C 67.5,48.1667 67.5,48.8333 67.5,49.5C 63.3046,49.6808 59.8046,51.3475 57,54.5C 55.8061,53.5697 54.4728,52.9031 53,52.5C 49.187,55.2818 45.687,54.9485 42.5,51.5C 48.9318,46.5712 56.2651,43.5712 64.5,42.5C 66.2705,43.0354 66.6039,43.8687 65.5,45C 66.0944,45.4643 66.7611,45.631 67.5,45.5 Z"/></g>
<g><path style="opacity:0.618" fill="#c298cb" d="M 36.5,62.5 C 36.3284,63.4916 36.6618,64.1583 37.5,64.5C 37.5743,66.4109 38.5743,67.5776 40.5,68C 43.4262,68.2178 46.2595,68.7178 49,69.5C 53.5884,69.0286 58.7551,68.362 64.5,67.5C 63.9423,68.7899 62.9423,69.6232 61.5,70C 54.1667,70.6667 46.8333,70.6667 39.5,70C 35.7168,69.3907 34.0502,67.224 34.5,63.5C 34.5056,60.1498 35.5056,57.1498 37.5,54.5C 37.8333,54.6667 38.1667,54.8333 38.5,55C 37.1328,57.3015 36.4661,59.8015 36.5,62.5 Z"/></g>
<g><path style="opacity:0.576" fill="#d5b5d2" d="M 67.5,47.5 C 68.8333,50.5 68.8333,53.5 67.5,56.5C 67.0623,55.4937 66.3957,55.4937 65.5,56.5C 64.7109,56.2172 64.0442,55.7172 63.5,55C 66.2146,54.1253 67.5479,52.2919 67.5,49.5C 67.5,48.8333 67.5,48.1667 67.5,47.5 Z"/></g>
<g><path style="opacity:0.894" fill="#3e2f2a" d="M 50.5,62.5 C 53.2776,62.0217 55.2776,63.0217 56.5,65.5C 54.5102,65.8411 52.5102,66.1744 50.5,66.5C 49.3744,65.1916 49.3744,63.8583 50.5,62.5 Z"/></g>
<g><path style="opacity:0.529" fill="#c69dda" d="M 63.5,40.5 C 64.1667,40.5 64.8333,40.5 65.5,40.5C 66.9418,41.8195 67.6085,43.4862 67.5,45.5C 66.7611,45.631 66.0944,45.4643 65.5,45C 66.6039,43.8687 66.2705,43.0354 64.5,42.5C 56.2651,43.5712 48.9318,46.5712 42.5,51.5C 41.0047,51.5852 40.0047,50.9185 39.5,49.5C 42.3618,42.9016 47.3618,40.2349 54.5,41.5C 57.5448,41.4921 60.5448,41.1587 63.5,40.5 Z"/></g>
<g><path style="opacity:0.008" fill="#535353" d="M 38.5,76.5 C 39.525,76.8966 39.6917,77.5632 39,78.5C 38.5357,77.9056 38.369,77.2389 38.5,76.5 Z"/></g>
<g><path style="opacity:0.059" fill="#babbba" d="M -0.5,110.5 C -0.5,110.167 -0.5,109.833 -0.5,109.5C 132.833,109.833 132.833,110.167 -0.5,110.5 Z"/></g>
</svg>
